# xmcd
# 
# Track frame offsets:
#     150
#     18900
#     39474
#     56643
#     78973
#     98955
#     115490
#     132570
#     154297
#     173603
#     198430
# 
# Disc length: 2976
# 
# Revision: 1
# Processed by: cddbd v1.5.2PL0 Copyright (c) Steve Scherf et al.
# Submitted via: BonkEnc v1.0
# 
DISCID=8f0b9e0b
DTITLE=U2 - All That You Can't Leave Behind
DYEAR=2000
DGENRE=Rock
TTITLE0=Beautiful day
TTITLE1=Stuck In A Moment You Can't Get Out Of
TTITLE2=Elevation
TTITLE3=Walk On
TTITLE4=Kite
TTITLE5=In A Little While
TTITLE6=Wild honey
TTITLE7=Peace On Earth
TTITLE8=When I Look At The World
TTITLE9=New York
TTITLE10=Grace
EXTD=\nYEAR: 2000  ID3G:  17
EXTT0=
EXTT1=
EXTT2=
EXTT3=
EXTT4=
EXTT5=
EXTT6=
EXTT7=
EXTT8=
EXTT9=
EXTT10=
PLAYORDER=
